<svg width="32" height="32" viewBox="0 0 32 32" fill="none" xmlns="http://www.w3.org/2000/svg">
  <path d="M16 2.14362L28 9.07182V22.9282L16 29.8564L4 22.9282V9.07182L16 2.14362Z" fill="white" />
  <path fill-rule="evenodd" clip-rule="evenodd"
    d="M26 10.2265L16 4.453L6 10.2265V21.7735L16 27.547L26 21.7735V10.2265ZM18 0.988901C16.7624 0.27437 15.2376 0.27437 14 0.988901L4 6.7624C2.76239 7.47694 2 8.79745 2 10.2265V21.7735C2 23.2026 2.76239 24.5231 4 25.2376L14 31.0111C15.2376 31.7257 16.7624 31.7257 18 31.0111L28 25.2376C29.2376 24.5231 30 23.2026 30 21.7735V10.2265C30 8.79744 29.2376 7.47694 28 6.7624L18 0.988901Z"
    fill="black" />
  <path d="M16 9.07181L22 12.5359V19.4641L16 22.9282L10 19.4641V12.5359L16 9.07181Z" fill="black" />
</svg>