<svg width="32" height="32" viewBox="0 0 32 32" fill="none" xmlns="http://www.w3.org/2000/svg">
<path d="M15.5003 0.133811C15.8095 -0.0446038 16.1905 -0.0446038 16.4997 0.133811L29.5003 7.63442C29.8095 7.81283 30 8.14256 30 8.49939V23.5006C30 23.8574 29.8095 24.1872 29.5003 24.3656L16.4997 31.8662C16.1905 32.0446 15.8095 32.0446 15.5003 31.8662L2.49974 24.3656C2.1905 24.1872 2 23.8574 2 23.5006V8.49939C2 8.14256 2.1905 7.81283 2.49974 7.63442L15.5003 0.133811Z" fill="black"/>
<path d="M29.75 13.205L24.125 9.95739C24.087 9.93545 24.0554 9.90389 24.0335 9.86589C24.0116 9.82788 24 9.78477 24 9.74089V3.82304C24 3.73527 23.9769 3.64905 23.933 3.57305C23.8891 3.49704 23.826 3.43392 23.75 3.39004L18.375 0.28679C18.337 0.264848 18.2939 0.253296 18.25 0.253296C18.2061 0.253296 18.163 0.264847 18.125 0.286788C18.087 0.308729 18.0554 0.340288 18.0335 0.378292C18.0116 0.416296 18 0.459406 18 0.50329V13.0606C18 13.1484 18.0231 13.2346 18.067 13.3107C18.1109 13.3867 18.174 13.4498 18.25 13.4937L23.875 16.7411C23.913 16.763 23.9446 16.7946 23.9665 16.8326C23.9885 16.8706 24 16.9137 24 16.9576V17.8237C24 17.8676 23.9885 17.9107 23.9665 17.9487C23.9446 17.9867 23.913 18.0183 23.875 18.0402L17.875 21.5044C17.837 21.5264 17.8055 21.5579 17.7835 21.5959C17.7616 21.6339 17.7501 21.677 17.7501 21.7209C17.7501 21.7648 17.7616 21.8079 17.7835 21.8459C17.8055 21.8839 17.837 21.9154 17.875 21.9374L23.25 25.0407C23.326 25.0845 23.4122 25.1076 23.5 25.1076C23.5878 25.1076 23.674 25.0845 23.75 25.0407L29.75 21.5765C29.826 21.5327 29.8891 21.4695 29.933 21.3935C29.9769 21.3175 30 21.2313 30 21.1435V13.638C30 13.5502 29.9769 13.464 29.933 13.388C29.8891 13.312 29.826 13.2489 29.75 13.205Z" fill="white"/>
<path d="M15.75 8.58614L13.25 7.14279C13.174 7.09891 13.0878 7.07581 13 7.07581C12.9122 7.07581 12.826 7.09891 12.75 7.14279L10.25 8.58614C10.174 8.63003 10.1109 8.69314 10.067 8.76915C10.0231 8.84516 10 8.93138 10 9.01914V11.9059C9.99999 11.9937 10.0231 12.0799 10.067 12.1559C10.1109 12.2319 10.174 12.2951 10.25 12.3389L12.75 13.7823C12.826 13.8262 12.9122 13.8493 13 13.8493C13.0878 13.8493 13.174 13.8262 13.25 13.7823L15.75 12.3389C15.826 12.2951 15.8891 12.2319 15.933 12.1559C15.9769 12.0799 16 11.9937 16 11.9059V9.01914C16 8.93138 15.9769 8.84516 15.933 8.76915C15.8891 8.69314 15.826 8.63003 15.75 8.58614V8.58614Z" fill="white"/>
<path d="M15.625 14.7205L10.25 17.8237C10.174 17.8676 10.1109 17.9307 10.067 18.0067C10.0231 18.0827 10 18.169 10 18.2567V24.7517C9.99999 24.7956 9.98844 24.8387 9.96649 24.8767C9.94455 24.9147 9.913 24.9462 9.875 24.9682L4.375 28.1436C4.33699 28.1656 4.30542 28.1971 4.28347 28.2351C4.26152 28.2731 4.24997 28.3163 4.24997 28.3601C4.24997 28.404 4.26152 28.4472 4.28347 28.4852C4.30542 28.5232 4.33699 28.5547 4.375 28.5767L9.75 31.68C9.82601 31.7239 9.91223 31.747 10 31.747C10.0878 31.747 10.174 31.7239 10.25 31.68L15.75 28.5046C15.826 28.4607 15.8891 28.3976 15.933 28.3216C15.9769 28.2456 16 28.1593 16 28.0716V14.937C16 14.8931 15.9884 14.85 15.9665 14.812C15.9446 14.774 15.913 14.7424 15.875 14.7205C15.837 14.6985 15.7939 14.687 15.75 14.687C15.7061 14.687 15.663 14.6985 15.625 14.7205Z" fill="white"/>
</svg>
