<svg width="32" height="32" viewBox="0 0 32 32" fill="none" xmlns="http://www.w3.org/2000/svg">
  <path
    d="M27.75 13.205L22.125 9.95739C22.087 9.93545 22.0554 9.90389 22.0335 9.86589C22.0116 9.82788 22 9.78477 22 9.74089V3.82304C22 3.73527 21.9769 3.64905 21.933 3.57305C21.8891 3.49704 21.826 3.43392 21.75 3.39004L16.375 0.28679C16.337 0.264848 16.2939 0.253296 16.25 0.253296C16.2061 0.253296 16.163 0.264847 16.125 0.286788C16.087 0.308729 16.0554 0.340288 16.0335 0.378292C16.0116 0.416296 16 0.459406 16 0.50329V13.0606C16 13.1484 16.0231 13.2346 16.067 13.3107C16.1109 13.3867 16.174 13.4498 16.25 13.4937L21.875 16.7411C21.913 16.763 21.9446 16.7946 21.9665 16.8326C21.9885 16.8706 22 16.9137 22 16.9576V17.8237C22 17.8676 21.9885 17.9107 21.9665 17.9487C21.9446 17.9867 21.913 18.0183 21.875 18.0402L15.875 21.5044C15.837 21.5264 15.8055 21.5579 15.7835 21.5959C15.7616 21.6339 15.7501 21.677 15.7501 21.7209C15.7501 21.7648 15.7616 21.8079 15.7835 21.8459C15.8055 21.8839 15.837 21.9154 15.875 21.9374L21.25 25.0407C21.326 25.0845 21.4122 25.1076 21.5 25.1076C21.5878 25.1076 21.674 25.0845 21.75 25.0407L27.75 21.5765C27.826 21.5327 27.8891 21.4695 27.933 21.3935C27.9769 21.3175 28 21.2313 28 21.1435V13.638C28 13.5502 27.9769 13.464 27.933 13.388C27.8891 13.312 27.826 13.2489 27.75 13.205Z"
    fill="white" />
  <path
    d="M13.75 8.58614L11.25 7.14279C11.174 7.09891 11.0878 7.07581 11 7.07581C10.9122 7.07581 10.826 7.09891 10.75 7.14279L8.25 8.58614C8.17399 8.63003 8.11087 8.69314 8.06699 8.76915C8.02311 8.84516 8 8.93138 8 9.01914V11.9059C7.99999 11.9937 8.02309 12.0799 8.06698 12.1559C8.11086 12.2319 8.17398 12.2951 8.25 12.3389L10.75 13.7823C10.826 13.8262 10.9122 13.8493 11 13.8493C11.0878 13.8493 11.174 13.8262 11.25 13.7823L13.75 12.3389C13.826 12.2951 13.8891 12.2319 13.933 12.1559C13.9769 12.0799 14 11.9937 14 11.9059V9.01914C14 8.93138 13.9769 8.84516 13.933 8.76915C13.8891 8.69314 13.826 8.63003 13.75 8.58614V8.58614Z"
    fill="white" />
  <path
    d="M13.625 14.7205L8.25 17.8238C8.17399 17.8676 8.11088 17.9308 8.06699 18.0068C8.02311 18.0828 8 18.169 8 18.2568V24.7518C7.99999 24.7956 7.98844 24.8387 7.96649 24.8767C7.94455 24.9147 7.913 24.9463 7.875 24.9682L2.375 28.1437C2.33699 28.1656 2.30542 28.1972 2.28347 28.2352C2.26152 28.2732 2.24997 28.3163 2.24997 28.3602C2.24997 28.4041 2.26152 28.4472 2.28347 28.4852C2.30542 28.5232 2.33699 28.5548 2.375 28.5767L7.75 31.68C7.82601 31.7239 7.91223 31.747 8 31.747C8.08777 31.747 8.17399 31.7239 8.25 31.68L13.75 28.5047C13.826 28.4608 13.8891 28.3976 13.933 28.3216C13.9769 28.2456 14 28.1594 14 28.0716V14.937C14 14.8931 13.9884 14.85 13.9665 14.812C13.9446 14.774 13.913 14.7424 13.875 14.7205C13.837 14.6986 13.7939 14.687 13.75 14.687C13.7061 14.687 13.663 14.6986 13.625 14.7205Z"
    fill="white" />
</svg>