<svg xmlns="http://www.w3.org/2000/svg" viewBox="0 0 13 16">
    <path
        d="M5.87,4.29,4.62,3.57a.28.28,0,0,0-.25,0l-1.25.72A.27.27,0,0,0,3,4.51V6a.27.27,0,0,0,.12.22l1.25.72a.23.23,0,0,0,.25,0l1.25-.72A.26.26,0,0,0,6,6V4.51A.26.26,0,0,0,5.87,4.29Z" />
    <path
        d="M5.81,7.36,3.12,8.91A.27.27,0,0,0,3,9.13v3.25a.11.11,0,0,1-.06.1L.19,14.07a.12.12,0,0,0,0,.22l2.68,1.55a.28.28,0,0,0,.25,0l2.75-1.59A.23.23,0,0,0,6,14V7.47A.12.12,0,0,0,5.81,7.36Z" />
    <path
        d="M12.87,6.6,10.06,5A.11.11,0,0,1,10,4.87v-3a.23.23,0,0,0-.13-.21L7.19.14A.13.13,0,0,0,7,.25V6.53a.27.27,0,0,0,.12.22L9.94,8.37a.11.11,0,0,1,.06.11v.43A.11.11,0,0,1,9.94,9l-3,1.73a.12.12,0,0,0,0,.22l2.68,1.55a.28.28,0,0,0,.25,0l3-1.73a.26.26,0,0,0,.13-.22V6.82A.26.26,0,0,0,12.87,6.6Z" />
</svg>